<mxfile host="app.diagrams.net" modified="2024-03-20T07:40:59.670Z" agent="Mozilla/5.0 (Windows NT 10.0; Win64; x64) AppleWebKit/537.36 (KHTML, like Gecko) Chrome/122.0.0.0 Safari/537.36" etag="NrkDnpZI5LMDPBYuE3ug" version="22.1.18" type="device">
  <diagram name="Page-1" id="fCN1hmd1idXeraV1BzVK">
    <mxGraphModel dx="989" dy="532" grid="1" gridSize="10" guides="1" tooltips="1" connect="1" arrows="1" fold="1" page="1" pageScale="1" pageWidth="850" pageHeight="1100" math="0" shadow="0">
      <root>
        <mxCell id="0" />
        <mxCell id="1" parent="0" />
        <mxCell id="EOnFB-ccV8KMYcNiq3IO-3" value="" style="edgeStyle=orthogonalEdgeStyle;rounded=0;orthogonalLoop=1;jettySize=auto;html=1;" edge="1" parent="1" source="EOnFB-ccV8KMYcNiq3IO-1" target="EOnFB-ccV8KMYcNiq3IO-2">
          <mxGeometry relative="1" as="geometry" />
        </mxCell>
        <mxCell id="EOnFB-ccV8KMYcNiq3IO-5" value="Subscribe&lt;br&gt;to new game&lt;br&gt;queue" style="edgeLabel;html=1;align=center;verticalAlign=middle;resizable=0;points=[];" vertex="1" connectable="0" parent="EOnFB-ccV8KMYcNiq3IO-3">
          <mxGeometry x="-0.0333" y="-3" relative="1" as="geometry">
            <mxPoint as="offset" />
          </mxGeometry>
        </mxCell>
        <mxCell id="EOnFB-ccV8KMYcNiq3IO-1" value="Play!" style="ellipse;whiteSpace=wrap;html=1;aspect=fixed;" vertex="1" parent="1">
          <mxGeometry x="40" y="40" width="80" height="80" as="geometry" />
        </mxCell>
        <mxCell id="EOnFB-ccV8KMYcNiq3IO-2" value="Subscribe user and add user to new game queue" style="whiteSpace=wrap;html=1;" vertex="1" parent="1">
          <mxGeometry x="240" y="50" width="120" height="60" as="geometry" />
        </mxCell>
        <mxCell id="EOnFB-ccV8KMYcNiq3IO-69" value="" style="edgeStyle=orthogonalEdgeStyle;rounded=0;orthogonalLoop=1;jettySize=auto;html=1;" edge="1" parent="1" source="EOnFB-ccV8KMYcNiq3IO-6" target="EOnFB-ccV8KMYcNiq3IO-68">
          <mxGeometry relative="1" as="geometry" />
        </mxCell>
        <mxCell id="EOnFB-ccV8KMYcNiq3IO-70" value="Publiish new&lt;br&gt;game found&lt;br&gt;with game_id" style="edgeLabel;html=1;align=center;verticalAlign=middle;resizable=0;points=[];" vertex="1" connectable="0" parent="EOnFB-ccV8KMYcNiq3IO-69">
          <mxGeometry x="0.0923" y="-1" relative="1" as="geometry">
            <mxPoint x="-10" y="-1" as="offset" />
          </mxGeometry>
        </mxCell>
        <mxCell id="EOnFB-ccV8KMYcNiq3IO-6" value="Find users to new match and lock" style="shape=parallelogram;perimeter=parallelogramPerimeter;whiteSpace=wrap;html=1;fixedSize=1;" vertex="1" parent="1">
          <mxGeometry x="40" y="140" width="120" height="60" as="geometry" />
        </mxCell>
        <mxCell id="EOnFB-ccV8KMYcNiq3IO-8" value="Users" style="swimlane;fontStyle=0;childLayout=stackLayout;horizontal=1;startSize=30;horizontalStack=0;resizeParent=1;resizeParentMax=0;resizeLast=0;collapsible=1;marginBottom=0;whiteSpace=wrap;html=1;" vertex="1" parent="1">
          <mxGeometry x="259.94" y="885" width="140" height="90" as="geometry" />
        </mxCell>
        <mxCell id="EOnFB-ccV8KMYcNiq3IO-9" value="id" style="text;strokeColor=none;fillColor=none;align=left;verticalAlign=middle;spacingLeft=4;spacingRight=4;overflow=hidden;points=[[0,0.5],[1,0.5]];portConstraint=eastwest;rotatable=0;whiteSpace=wrap;html=1;" vertex="1" parent="EOnFB-ccV8KMYcNiq3IO-8">
          <mxGeometry y="30" width="140" height="30" as="geometry" />
        </mxCell>
        <mxCell id="EOnFB-ccV8KMYcNiq3IO-10" value="username" style="text;strokeColor=none;fillColor=none;align=left;verticalAlign=middle;spacingLeft=4;spacingRight=4;overflow=hidden;points=[[0,0.5],[1,0.5]];portConstraint=eastwest;rotatable=0;whiteSpace=wrap;html=1;" vertex="1" parent="EOnFB-ccV8KMYcNiq3IO-8">
          <mxGeometry y="60" width="140" height="30" as="geometry" />
        </mxCell>
        <mxCell id="EOnFB-ccV8KMYcNiq3IO-14" value="Players" style="swimlane;fontStyle=0;childLayout=stackLayout;horizontal=1;startSize=30;horizontalStack=0;resizeParent=1;resizeParentMax=0;resizeLast=0;collapsible=1;marginBottom=0;whiteSpace=wrap;html=1;" vertex="1" parent="1">
          <mxGeometry x="449.94" y="765" width="140" height="210" as="geometry" />
        </mxCell>
        <mxCell id="EOnFB-ccV8KMYcNiq3IO-15" value="id" style="text;strokeColor=none;fillColor=none;align=left;verticalAlign=middle;spacingLeft=4;spacingRight=4;overflow=hidden;points=[[0,0.5],[1,0.5]];portConstraint=eastwest;rotatable=0;whiteSpace=wrap;html=1;" vertex="1" parent="EOnFB-ccV8KMYcNiq3IO-14">
          <mxGeometry y="30" width="140" height="30" as="geometry" />
        </mxCell>
        <mxCell id="EOnFB-ccV8KMYcNiq3IO-17" value="game_id" style="text;strokeColor=none;fillColor=none;align=left;verticalAlign=middle;spacingLeft=4;spacingRight=4;overflow=hidden;points=[[0,0.5],[1,0.5]];portConstraint=eastwest;rotatable=0;whiteSpace=wrap;html=1;" vertex="1" parent="EOnFB-ccV8KMYcNiq3IO-14">
          <mxGeometry y="60" width="140" height="30" as="geometry" />
        </mxCell>
        <mxCell id="EOnFB-ccV8KMYcNiq3IO-16" value="user_id" style="text;strokeColor=none;fillColor=none;align=left;verticalAlign=middle;spacingLeft=4;spacingRight=4;overflow=hidden;points=[[0,0.5],[1,0.5]];portConstraint=eastwest;rotatable=0;whiteSpace=wrap;html=1;" vertex="1" parent="EOnFB-ccV8KMYcNiq3IO-14">
          <mxGeometry y="90" width="140" height="30" as="geometry" />
        </mxCell>
        <mxCell id="EOnFB-ccV8KMYcNiq3IO-18" value="position" style="text;strokeColor=none;fillColor=none;align=left;verticalAlign=middle;spacingLeft=4;spacingRight=4;overflow=hidden;points=[[0,0.5],[1,0.5]];portConstraint=eastwest;rotatable=0;whiteSpace=wrap;html=1;" vertex="1" parent="EOnFB-ccV8KMYcNiq3IO-14">
          <mxGeometry y="120" width="140" height="30" as="geometry" />
        </mxCell>
        <mxCell id="EOnFB-ccV8KMYcNiq3IO-19" value="alive" style="text;strokeColor=none;fillColor=none;align=left;verticalAlign=middle;spacingLeft=4;spacingRight=4;overflow=hidden;points=[[0,0.5],[1,0.5]];portConstraint=eastwest;rotatable=0;whiteSpace=wrap;html=1;" vertex="1" parent="EOnFB-ccV8KMYcNiq3IO-14">
          <mxGeometry y="150" width="140" height="30" as="geometry" />
        </mxCell>
        <mxCell id="EOnFB-ccV8KMYcNiq3IO-20" value="coins" style="text;strokeColor=none;fillColor=none;align=left;verticalAlign=middle;spacingLeft=4;spacingRight=4;overflow=hidden;points=[[0,0.5],[1,0.5]];portConstraint=eastwest;rotatable=0;whiteSpace=wrap;html=1;" vertex="1" parent="EOnFB-ccV8KMYcNiq3IO-14">
          <mxGeometry y="180" width="140" height="30" as="geometry" />
        </mxCell>
        <mxCell id="EOnFB-ccV8KMYcNiq3IO-21" value="Games" style="swimlane;fontStyle=0;childLayout=stackLayout;horizontal=1;startSize=30;horizontalStack=0;resizeParent=1;resizeParentMax=0;resizeLast=0;collapsible=1;marginBottom=0;whiteSpace=wrap;html=1;" vertex="1" parent="1">
          <mxGeometry x="439.94" y="610" width="140" height="120" as="geometry" />
        </mxCell>
        <mxCell id="EOnFB-ccV8KMYcNiq3IO-22" value="id" style="text;strokeColor=none;fillColor=none;align=left;verticalAlign=middle;spacingLeft=4;spacingRight=4;overflow=hidden;points=[[0,0.5],[1,0.5]];portConstraint=eastwest;rotatable=0;whiteSpace=wrap;html=1;" vertex="1" parent="EOnFB-ccV8KMYcNiq3IO-21">
          <mxGeometry y="30" width="140" height="30" as="geometry" />
        </mxCell>
        <mxCell id="EOnFB-ccV8KMYcNiq3IO-23" value="winner (player_id)" style="text;strokeColor=none;fillColor=none;align=left;verticalAlign=middle;spacingLeft=4;spacingRight=4;overflow=hidden;points=[[0,0.5],[1,0.5]];portConstraint=eastwest;rotatable=0;whiteSpace=wrap;html=1;" vertex="1" parent="EOnFB-ccV8KMYcNiq3IO-21">
          <mxGeometry y="60" width="140" height="30" as="geometry" />
        </mxCell>
        <mxCell id="EOnFB-ccV8KMYcNiq3IO-24" value="status" style="text;strokeColor=none;fillColor=none;align=left;verticalAlign=middle;spacingLeft=4;spacingRight=4;overflow=hidden;points=[[0,0.5],[1,0.5]];portConstraint=eastwest;rotatable=0;whiteSpace=wrap;html=1;" vertex="1" parent="EOnFB-ccV8KMYcNiq3IO-21">
          <mxGeometry y="90" width="140" height="30" as="geometry" />
        </mxCell>
        <mxCell id="EOnFB-ccV8KMYcNiq3IO-29" value="Cards" style="swimlane;fontStyle=0;childLayout=stackLayout;horizontal=1;startSize=30;horizontalStack=0;resizeParent=1;resizeParentMax=0;resizeLast=0;collapsible=1;marginBottom=0;whiteSpace=wrap;html=1;" vertex="1" parent="1">
          <mxGeometry x="649.94" y="610" width="140" height="180" as="geometry" />
        </mxCell>
        <mxCell id="EOnFB-ccV8KMYcNiq3IO-30" value="id" style="text;strokeColor=none;fillColor=none;align=left;verticalAlign=middle;spacingLeft=4;spacingRight=4;overflow=hidden;points=[[0,0.5],[1,0.5]];portConstraint=eastwest;rotatable=0;whiteSpace=wrap;html=1;" vertex="1" parent="EOnFB-ccV8KMYcNiq3IO-29">
          <mxGeometry y="30" width="140" height="30" as="geometry" />
        </mxCell>
        <mxCell id="EOnFB-ccV8KMYcNiq3IO-31" value="game_id" style="text;strokeColor=none;fillColor=none;align=left;verticalAlign=middle;spacingLeft=4;spacingRight=4;overflow=hidden;points=[[0,0.5],[1,0.5]];portConstraint=eastwest;rotatable=0;whiteSpace=wrap;html=1;" vertex="1" parent="EOnFB-ccV8KMYcNiq3IO-29">
          <mxGeometry y="60" width="140" height="30" as="geometry" />
        </mxCell>
        <mxCell id="EOnFB-ccV8KMYcNiq3IO-32" value="player_id" style="text;strokeColor=none;fillColor=none;align=left;verticalAlign=middle;spacingLeft=4;spacingRight=4;overflow=hidden;points=[[0,0.5],[1,0.5]];portConstraint=eastwest;rotatable=0;whiteSpace=wrap;html=1;" vertex="1" parent="EOnFB-ccV8KMYcNiq3IO-29">
          <mxGeometry y="90" width="140" height="30" as="geometry" />
        </mxCell>
        <mxCell id="EOnFB-ccV8KMYcNiq3IO-33" value="type" style="text;strokeColor=none;fillColor=none;align=left;verticalAlign=middle;spacingLeft=4;spacingRight=4;overflow=hidden;points=[[0,0.5],[1,0.5]];portConstraint=eastwest;rotatable=0;whiteSpace=wrap;html=1;" vertex="1" parent="EOnFB-ccV8KMYcNiq3IO-29">
          <mxGeometry y="120" width="140" height="30" as="geometry" />
        </mxCell>
        <mxCell id="EOnFB-ccV8KMYcNiq3IO-34" value="revealed" style="text;strokeColor=none;fillColor=none;align=left;verticalAlign=middle;spacingLeft=4;spacingRight=4;overflow=hidden;points=[[0,0.5],[1,0.5]];portConstraint=eastwest;rotatable=0;whiteSpace=wrap;html=1;" vertex="1" parent="EOnFB-ccV8KMYcNiq3IO-29">
          <mxGeometry y="150" width="140" height="30" as="geometry" />
        </mxCell>
        <mxCell id="EOnFB-ccV8KMYcNiq3IO-39" value="Actions" style="swimlane;fontStyle=0;childLayout=stackLayout;horizontal=1;startSize=30;horizontalStack=0;resizeParent=1;resizeParentMax=0;resizeLast=0;collapsible=1;marginBottom=0;whiteSpace=wrap;html=1;" vertex="1" parent="1">
          <mxGeometry x="649.94" y="810" width="140" height="270" as="geometry" />
        </mxCell>
        <mxCell id="EOnFB-ccV8KMYcNiq3IO-40" value="id" style="text;strokeColor=none;fillColor=none;align=left;verticalAlign=middle;spacingLeft=4;spacingRight=4;overflow=hidden;points=[[0,0.5],[1,0.5]];portConstraint=eastwest;rotatable=0;whiteSpace=wrap;html=1;" vertex="1" parent="EOnFB-ccV8KMYcNiq3IO-39">
          <mxGeometry y="30" width="140" height="30" as="geometry" />
        </mxCell>
        <mxCell id="EOnFB-ccV8KMYcNiq3IO-41" value="player_id" style="text;strokeColor=none;fillColor=none;align=left;verticalAlign=middle;spacingLeft=4;spacingRight=4;overflow=hidden;points=[[0,0.5],[1,0.5]];portConstraint=eastwest;rotatable=0;whiteSpace=wrap;html=1;" vertex="1" parent="EOnFB-ccV8KMYcNiq3IO-39">
          <mxGeometry y="60" width="140" height="30" as="geometry" />
        </mxCell>
        <mxCell id="EOnFB-ccV8KMYcNiq3IO-42" value="target_player_id" style="text;strokeColor=none;fillColor=none;align=left;verticalAlign=middle;spacingLeft=4;spacingRight=4;overflow=hidden;points=[[0,0.5],[1,0.5]];portConstraint=eastwest;rotatable=0;whiteSpace=wrap;html=1;" vertex="1" parent="EOnFB-ccV8KMYcNiq3IO-39">
          <mxGeometry y="90" width="140" height="30" as="geometry" />
        </mxCell>
        <mxCell id="EOnFB-ccV8KMYcNiq3IO-110" value="counter_action_id" style="text;strokeColor=none;fillColor=none;align=left;verticalAlign=middle;spacingLeft=4;spacingRight=4;overflow=hidden;points=[[0,0.5],[1,0.5]];portConstraint=eastwest;rotatable=0;whiteSpace=wrap;html=1;" vertex="1" parent="EOnFB-ccV8KMYcNiq3IO-39">
          <mxGeometry y="120" width="140" height="30" as="geometry" />
        </mxCell>
        <mxCell id="EOnFB-ccV8KMYcNiq3IO-109" style="edgeStyle=orthogonalEdgeStyle;rounded=0;orthogonalLoop=1;jettySize=auto;html=1;entryX=1;entryY=0.5;entryDx=0;entryDy=0;exitX=1;exitY=0.5;exitDx=0;exitDy=0;" edge="1" parent="EOnFB-ccV8KMYcNiq3IO-39" source="EOnFB-ccV8KMYcNiq3IO-110" target="EOnFB-ccV8KMYcNiq3IO-40">
          <mxGeometry relative="1" as="geometry">
            <Array as="points">
              <mxPoint x="160" y="135" />
              <mxPoint x="160" y="45" />
            </Array>
          </mxGeometry>
        </mxCell>
        <mxCell id="EOnFB-ccV8KMYcNiq3IO-108" value="chained" style="text;strokeColor=none;fillColor=none;align=left;verticalAlign=middle;spacingLeft=4;spacingRight=4;overflow=hidden;points=[[0,0.5],[1,0.5]];portConstraint=eastwest;rotatable=0;whiteSpace=wrap;html=1;" vertex="1" parent="EOnFB-ccV8KMYcNiq3IO-39">
          <mxGeometry y="150" width="140" height="30" as="geometry" />
        </mxCell>
        <mxCell id="EOnFB-ccV8KMYcNiq3IO-43" value="type" style="text;strokeColor=none;fillColor=none;align=left;verticalAlign=middle;spacingLeft=4;spacingRight=4;overflow=hidden;points=[[0,0.5],[1,0.5]];portConstraint=eastwest;rotatable=0;whiteSpace=wrap;html=1;" vertex="1" parent="EOnFB-ccV8KMYcNiq3IO-39">
          <mxGeometry y="180" width="140" height="30" as="geometry" />
        </mxCell>
        <mxCell id="EOnFB-ccV8KMYcNiq3IO-44" value="success" style="text;strokeColor=none;fillColor=none;align=left;verticalAlign=middle;spacingLeft=4;spacingRight=4;overflow=hidden;points=[[0,0.5],[1,0.5]];portConstraint=eastwest;rotatable=0;whiteSpace=wrap;html=1;" vertex="1" parent="EOnFB-ccV8KMYcNiq3IO-39">
          <mxGeometry y="210" width="140" height="30" as="geometry" />
        </mxCell>
        <mxCell id="EOnFB-ccV8KMYcNiq3IO-140" value="round" style="text;strokeColor=none;fillColor=none;align=left;verticalAlign=middle;spacingLeft=4;spacingRight=4;overflow=hidden;points=[[0,0.5],[1,0.5]];portConstraint=eastwest;rotatable=0;whiteSpace=wrap;html=1;" vertex="1" parent="EOnFB-ccV8KMYcNiq3IO-39">
          <mxGeometry y="240" width="140" height="30" as="geometry" />
        </mxCell>
        <mxCell id="EOnFB-ccV8KMYcNiq3IO-47" style="edgeStyle=orthogonalEdgeStyle;rounded=0;orthogonalLoop=1;jettySize=auto;html=1;entryX=1;entryY=0.5;entryDx=0;entryDy=0;exitX=0;exitY=0.5;exitDx=0;exitDy=0;" edge="1" parent="1" source="EOnFB-ccV8KMYcNiq3IO-31" target="EOnFB-ccV8KMYcNiq3IO-22">
          <mxGeometry relative="1" as="geometry">
            <Array as="points">
              <mxPoint x="629.94" y="685" />
              <mxPoint x="629.94" y="655" />
            </Array>
          </mxGeometry>
        </mxCell>
        <mxCell id="EOnFB-ccV8KMYcNiq3IO-48" style="edgeStyle=orthogonalEdgeStyle;rounded=0;orthogonalLoop=1;jettySize=auto;html=1;entryX=1;entryY=0.5;entryDx=0;entryDy=0;" edge="1" parent="1" source="EOnFB-ccV8KMYcNiq3IO-16" target="EOnFB-ccV8KMYcNiq3IO-9">
          <mxGeometry relative="1" as="geometry" />
        </mxCell>
        <mxCell id="EOnFB-ccV8KMYcNiq3IO-52" style="edgeStyle=orthogonalEdgeStyle;rounded=0;orthogonalLoop=1;jettySize=auto;html=1;entryX=1;entryY=0.5;entryDx=0;entryDy=0;" edge="1" parent="1" source="EOnFB-ccV8KMYcNiq3IO-23" target="EOnFB-ccV8KMYcNiq3IO-15">
          <mxGeometry relative="1" as="geometry">
            <Array as="points">
              <mxPoint x="619.94" y="685" />
              <mxPoint x="619.94" y="810" />
            </Array>
          </mxGeometry>
        </mxCell>
        <mxCell id="EOnFB-ccV8KMYcNiq3IO-53" style="edgeStyle=orthogonalEdgeStyle;rounded=0;orthogonalLoop=1;jettySize=auto;html=1;entryX=1;entryY=0.5;entryDx=0;entryDy=0;" edge="1" parent="1" source="EOnFB-ccV8KMYcNiq3IO-32" target="EOnFB-ccV8KMYcNiq3IO-15">
          <mxGeometry relative="1" as="geometry">
            <Array as="points">
              <mxPoint x="619.94" y="715" />
              <mxPoint x="619.94" y="810" />
            </Array>
          </mxGeometry>
        </mxCell>
        <mxCell id="EOnFB-ccV8KMYcNiq3IO-54" style="edgeStyle=orthogonalEdgeStyle;rounded=0;orthogonalLoop=1;jettySize=auto;html=1;entryX=1;entryY=0.5;entryDx=0;entryDy=0;" edge="1" parent="1" source="EOnFB-ccV8KMYcNiq3IO-41" target="EOnFB-ccV8KMYcNiq3IO-15">
          <mxGeometry relative="1" as="geometry" />
        </mxCell>
        <mxCell id="EOnFB-ccV8KMYcNiq3IO-55" style="edgeStyle=orthogonalEdgeStyle;rounded=0;orthogonalLoop=1;jettySize=auto;html=1;entryX=1;entryY=0.5;entryDx=0;entryDy=0;" edge="1" parent="1" source="EOnFB-ccV8KMYcNiq3IO-42" target="EOnFB-ccV8KMYcNiq3IO-15">
          <mxGeometry relative="1" as="geometry" />
        </mxCell>
        <mxCell id="EOnFB-ccV8KMYcNiq3IO-56" style="edgeStyle=orthogonalEdgeStyle;rounded=0;orthogonalLoop=1;jettySize=auto;html=1;entryX=0;entryY=0.5;entryDx=0;entryDy=0;" edge="1" parent="1" source="EOnFB-ccV8KMYcNiq3IO-17" target="EOnFB-ccV8KMYcNiq3IO-22">
          <mxGeometry relative="1" as="geometry" />
        </mxCell>
        <mxCell id="EOnFB-ccV8KMYcNiq3IO-57" value="Game Queue" style="swimlane;fontStyle=0;childLayout=stackLayout;horizontal=1;startSize=30;horizontalStack=0;resizeParent=1;resizeParentMax=0;resizeLast=0;collapsible=1;marginBottom=0;whiteSpace=wrap;html=1;" vertex="1" parent="1">
          <mxGeometry x="259.94" y="610" width="140" height="240" as="geometry" />
        </mxCell>
        <mxCell id="EOnFB-ccV8KMYcNiq3IO-58" value="id" style="text;strokeColor=none;fillColor=none;align=left;verticalAlign=middle;spacingLeft=4;spacingRight=4;overflow=hidden;points=[[0,0.5],[1,0.5]];portConstraint=eastwest;rotatable=0;whiteSpace=wrap;html=1;" vertex="1" parent="EOnFB-ccV8KMYcNiq3IO-57">
          <mxGeometry y="30" width="140" height="30" as="geometry" />
        </mxCell>
        <mxCell id="EOnFB-ccV8KMYcNiq3IO-59" value="user_id" style="text;strokeColor=none;fillColor=none;align=left;verticalAlign=middle;spacingLeft=4;spacingRight=4;overflow=hidden;points=[[0,0.5],[1,0.5]];portConstraint=eastwest;rotatable=0;whiteSpace=wrap;html=1;" vertex="1" parent="EOnFB-ccV8KMYcNiq3IO-57">
          <mxGeometry y="60" width="140" height="30" as="geometry" />
        </mxCell>
        <mxCell id="EOnFB-ccV8KMYcNiq3IO-61" value="available" style="text;strokeColor=none;fillColor=none;align=left;verticalAlign=middle;spacingLeft=4;spacingRight=4;overflow=hidden;points=[[0,0.5],[1,0.5]];portConstraint=eastwest;rotatable=0;whiteSpace=wrap;html=1;" vertex="1" parent="EOnFB-ccV8KMYcNiq3IO-57">
          <mxGeometry y="90" width="140" height="30" as="geometry" />
        </mxCell>
        <mxCell id="EOnFB-ccV8KMYcNiq3IO-62" value="accepted" style="text;strokeColor=none;fillColor=none;align=left;verticalAlign=middle;spacingLeft=4;spacingRight=4;overflow=hidden;points=[[0,0.5],[1,0.5]];portConstraint=eastwest;rotatable=0;whiteSpace=wrap;html=1;" vertex="1" parent="EOnFB-ccV8KMYcNiq3IO-57">
          <mxGeometry y="120" width="140" height="30" as="geometry" />
        </mxCell>
        <mxCell id="EOnFB-ccV8KMYcNiq3IO-64" value="room_size" style="text;strokeColor=none;fillColor=none;align=left;verticalAlign=middle;spacingLeft=4;spacingRight=4;overflow=hidden;points=[[0,0.5],[1,0.5]];portConstraint=eastwest;rotatable=0;whiteSpace=wrap;html=1;" vertex="1" parent="EOnFB-ccV8KMYcNiq3IO-57">
          <mxGeometry y="150" width="140" height="30" as="geometry" />
        </mxCell>
        <mxCell id="EOnFB-ccV8KMYcNiq3IO-65" value="created_at" style="text;strokeColor=none;fillColor=none;align=left;verticalAlign=middle;spacingLeft=4;spacingRight=4;overflow=hidden;points=[[0,0.5],[1,0.5]];portConstraint=eastwest;rotatable=0;whiteSpace=wrap;html=1;" vertex="1" parent="EOnFB-ccV8KMYcNiq3IO-57">
          <mxGeometry y="180" width="140" height="30" as="geometry" />
        </mxCell>
        <mxCell id="EOnFB-ccV8KMYcNiq3IO-60" value="updated_at" style="text;strokeColor=none;fillColor=none;align=left;verticalAlign=middle;spacingLeft=4;spacingRight=4;overflow=hidden;points=[[0,0.5],[1,0.5]];portConstraint=eastwest;rotatable=0;whiteSpace=wrap;html=1;" vertex="1" parent="EOnFB-ccV8KMYcNiq3IO-57">
          <mxGeometry y="210" width="140" height="30" as="geometry" />
        </mxCell>
        <mxCell id="EOnFB-ccV8KMYcNiq3IO-67" style="edgeStyle=orthogonalEdgeStyle;rounded=0;orthogonalLoop=1;jettySize=auto;html=1;entryX=0;entryY=0.5;entryDx=0;entryDy=0;" edge="1" parent="1" source="EOnFB-ccV8KMYcNiq3IO-59" target="EOnFB-ccV8KMYcNiq3IO-9">
          <mxGeometry relative="1" as="geometry" />
        </mxCell>
        <mxCell id="EOnFB-ccV8KMYcNiq3IO-76" value="" style="edgeStyle=orthogonalEdgeStyle;rounded=0;orthogonalLoop=1;jettySize=auto;html=1;" edge="1" parent="1" source="EOnFB-ccV8KMYcNiq3IO-68" target="EOnFB-ccV8KMYcNiq3IO-75">
          <mxGeometry relative="1" as="geometry" />
        </mxCell>
        <mxCell id="EOnFB-ccV8KMYcNiq3IO-68" value="Accept/reject" style="ellipse;whiteSpace=wrap;html=1;" vertex="1" parent="1">
          <mxGeometry x="260" y="130" width="80" height="80" as="geometry" />
        </mxCell>
        <mxCell id="EOnFB-ccV8KMYcNiq3IO-78" value="" style="edgeStyle=orthogonalEdgeStyle;rounded=0;orthogonalLoop=1;jettySize=auto;html=1;" edge="1" parent="1" source="EOnFB-ccV8KMYcNiq3IO-75" target="EOnFB-ccV8KMYcNiq3IO-77">
          <mxGeometry relative="1" as="geometry" />
        </mxCell>
        <mxCell id="EOnFB-ccV8KMYcNiq3IO-79" value="Yes" style="edgeLabel;html=1;align=center;verticalAlign=middle;resizable=0;points=[];" vertex="1" connectable="0" parent="EOnFB-ccV8KMYcNiq3IO-78">
          <mxGeometry x="-0.1" y="3" relative="1" as="geometry">
            <mxPoint as="offset" />
          </mxGeometry>
        </mxCell>
        <mxCell id="EOnFB-ccV8KMYcNiq3IO-81" value="" style="edgeStyle=orthogonalEdgeStyle;rounded=0;orthogonalLoop=1;jettySize=auto;html=1;" edge="1" parent="1" source="EOnFB-ccV8KMYcNiq3IO-75" target="EOnFB-ccV8KMYcNiq3IO-80">
          <mxGeometry relative="1" as="geometry" />
        </mxCell>
        <mxCell id="EOnFB-ccV8KMYcNiq3IO-82" value="No" style="edgeLabel;html=1;align=center;verticalAlign=middle;resizable=0;points=[];" vertex="1" connectable="0" parent="EOnFB-ccV8KMYcNiq3IO-81">
          <mxGeometry x="-0.3" relative="1" as="geometry">
            <mxPoint as="offset" />
          </mxGeometry>
        </mxCell>
        <mxCell id="EOnFB-ccV8KMYcNiq3IO-75" value="Accepted?" style="rhombus;whiteSpace=wrap;html=1;" vertex="1" parent="1">
          <mxGeometry x="380" y="130" width="80" height="80" as="geometry" />
        </mxCell>
        <mxCell id="EOnFB-ccV8KMYcNiq3IO-77" value="Subscribe to game queue and Set Available and Accepted to True" style="whiteSpace=wrap;html=1;" vertex="1" parent="1">
          <mxGeometry x="520" y="140" width="120" height="60" as="geometry" />
        </mxCell>
        <mxCell id="EOnFB-ccV8KMYcNiq3IO-80" value="Delete from Queue" style="whiteSpace=wrap;html=1;" vertex="1" parent="1">
          <mxGeometry x="420" y="20" width="120" height="60" as="geometry" />
        </mxCell>
        <mxCell id="EOnFB-ccV8KMYcNiq3IO-87" value="" style="edgeStyle=orthogonalEdgeStyle;rounded=0;orthogonalLoop=1;jettySize=auto;html=1;" edge="1" parent="1" source="EOnFB-ccV8KMYcNiq3IO-83" target="EOnFB-ccV8KMYcNiq3IO-86">
          <mxGeometry relative="1" as="geometry" />
        </mxCell>
        <mxCell id="EOnFB-ccV8KMYcNiq3IO-83" value="Find users that accepted" style="shape=parallelogram;perimeter=parallelogramPerimeter;whiteSpace=wrap;html=1;fixedSize=1;" vertex="1" parent="1">
          <mxGeometry x="40" y="220" width="120" height="60" as="geometry" />
        </mxCell>
        <mxCell id="EOnFB-ccV8KMYcNiq3IO-89" value="" style="edgeStyle=orthogonalEdgeStyle;rounded=0;orthogonalLoop=1;jettySize=auto;html=1;" edge="1" parent="1" source="EOnFB-ccV8KMYcNiq3IO-86" target="EOnFB-ccV8KMYcNiq3IO-88">
          <mxGeometry relative="1" as="geometry" />
        </mxCell>
        <mxCell id="EOnFB-ccV8KMYcNiq3IO-86" value="Start game and publish private game channel" style="whiteSpace=wrap;html=1;" vertex="1" parent="1">
          <mxGeometry x="240" y="220" width="120" height="60" as="geometry" />
        </mxCell>
        <mxCell id="EOnFB-ccV8KMYcNiq3IO-91" value="GET&lt;br&gt;Game" style="edgeStyle=orthogonalEdgeStyle;rounded=0;orthogonalLoop=1;jettySize=auto;html=1;" edge="1" parent="1" source="EOnFB-ccV8KMYcNiq3IO-88" target="EOnFB-ccV8KMYcNiq3IO-90">
          <mxGeometry relative="1" as="geometry" />
        </mxCell>
        <mxCell id="EOnFB-ccV8KMYcNiq3IO-88" value="Subscribe to game channel" style="ellipse;whiteSpace=wrap;html=1;" vertex="1" parent="1">
          <mxGeometry x="400" y="210" width="80" height="80" as="geometry" />
        </mxCell>
        <mxCell id="EOnFB-ccV8KMYcNiq3IO-90" value="Send player and game info" style="whiteSpace=wrap;html=1;" vertex="1" parent="1">
          <mxGeometry x="540" y="220" width="120" height="60" as="geometry" />
        </mxCell>
        <mxCell id="EOnFB-ccV8KMYcNiq3IO-94" value="" style="edgeStyle=orthogonalEdgeStyle;rounded=0;orthogonalLoop=1;jettySize=auto;html=1;" edge="1" parent="1" source="EOnFB-ccV8KMYcNiq3IO-92">
          <mxGeometry relative="1" as="geometry">
            <mxPoint x="220" y="360" as="targetPoint" />
          </mxGeometry>
        </mxCell>
        <mxCell id="EOnFB-ccV8KMYcNiq3IO-95" value="POST action" style="edgeLabel;html=1;align=center;verticalAlign=middle;resizable=0;points=[];" vertex="1" connectable="0" parent="EOnFB-ccV8KMYcNiq3IO-94">
          <mxGeometry x="-0.3667" y="1" relative="1" as="geometry">
            <mxPoint x="12" y="1" as="offset" />
          </mxGeometry>
        </mxCell>
        <mxCell id="EOnFB-ccV8KMYcNiq3IO-92" value="Player in position selects action" style="ellipse;whiteSpace=wrap;html=1;" vertex="1" parent="1">
          <mxGeometry x="40" y="320" width="80" height="80" as="geometry" />
        </mxCell>
        <mxCell id="EOnFB-ccV8KMYcNiq3IO-101" value="" style="edgeStyle=orthogonalEdgeStyle;rounded=0;orthogonalLoop=1;jettySize=auto;html=1;" edge="1" parent="1" source="EOnFB-ccV8KMYcNiq3IO-97" target="EOnFB-ccV8KMYcNiq3IO-100">
          <mxGeometry relative="1" as="geometry" />
        </mxCell>
        <mxCell id="EOnFB-ccV8KMYcNiq3IO-102" value="Yes" style="edgeLabel;html=1;align=center;verticalAlign=middle;resizable=0;points=[];" vertex="1" connectable="0" parent="EOnFB-ccV8KMYcNiq3IO-101">
          <mxGeometry x="0.0111" y="2" relative="1" as="geometry">
            <mxPoint as="offset" />
          </mxGeometry>
        </mxCell>
        <mxCell id="EOnFB-ccV8KMYcNiq3IO-97" value="Valid?" style="rhombus;whiteSpace=wrap;html=1;" vertex="1" parent="1">
          <mxGeometry x="220" y="320" width="80" height="80" as="geometry" />
        </mxCell>
        <mxCell id="EOnFB-ccV8KMYcNiq3IO-98" style="edgeStyle=orthogonalEdgeStyle;rounded=0;orthogonalLoop=1;jettySize=auto;html=1;entryX=0.546;entryY=1.019;entryDx=0;entryDy=0;entryPerimeter=0;" edge="1" parent="1" source="EOnFB-ccV8KMYcNiq3IO-97" target="EOnFB-ccV8KMYcNiq3IO-92">
          <mxGeometry relative="1" as="geometry">
            <Array as="points">
              <mxPoint x="260" y="410" />
              <mxPoint x="84" y="410" />
            </Array>
          </mxGeometry>
        </mxCell>
        <mxCell id="EOnFB-ccV8KMYcNiq3IO-99" value="NO" style="edgeLabel;html=1;align=center;verticalAlign=middle;resizable=0;points=[];" vertex="1" connectable="0" parent="EOnFB-ccV8KMYcNiq3IO-98">
          <mxGeometry x="-0.1135" y="-2" relative="1" as="geometry">
            <mxPoint as="offset" />
          </mxGeometry>
        </mxCell>
        <mxCell id="EOnFB-ccV8KMYcNiq3IO-106" style="edgeStyle=orthogonalEdgeStyle;rounded=0;orthogonalLoop=1;jettySize=auto;html=1;" edge="1" parent="1" source="EOnFB-ccV8KMYcNiq3IO-100" target="EOnFB-ccV8KMYcNiq3IO-103">
          <mxGeometry relative="1" as="geometry">
            <Array as="points">
              <mxPoint x="430" y="450" />
              <mxPoint x="430" y="450" />
            </Array>
          </mxGeometry>
        </mxCell>
        <mxCell id="EOnFB-ccV8KMYcNiq3IO-107" value="Publish other player&#39;s action" style="edgeLabel;html=1;align=center;verticalAlign=middle;resizable=0;points=[];" vertex="1" connectable="0" parent="EOnFB-ccV8KMYcNiq3IO-106">
          <mxGeometry x="-0.4302" y="1" relative="1" as="geometry">
            <mxPoint x="4" y="13" as="offset" />
          </mxGeometry>
        </mxCell>
        <mxCell id="EOnFB-ccV8KMYcNiq3IO-100" value="Create new action" style="whiteSpace=wrap;html=1;" vertex="1" parent="1">
          <mxGeometry x="360" y="330" width="120" height="60" as="geometry" />
        </mxCell>
        <mxCell id="EOnFB-ccV8KMYcNiq3IO-113" value="" style="edgeStyle=orthogonalEdgeStyle;rounded=0;orthogonalLoop=1;jettySize=auto;html=1;" edge="1" parent="1" source="EOnFB-ccV8KMYcNiq3IO-103" target="EOnFB-ccV8KMYcNiq3IO-112">
          <mxGeometry relative="1" as="geometry" />
        </mxCell>
        <mxCell id="EOnFB-ccV8KMYcNiq3IO-103" value="Other players select counter action" style="ellipse;whiteSpace=wrap;html=1;" vertex="1" parent="1">
          <mxGeometry x="385" y="450" width="80" height="80" as="geometry" />
        </mxCell>
        <mxCell id="EOnFB-ccV8KMYcNiq3IO-104" style="edgeStyle=orthogonalEdgeStyle;rounded=0;orthogonalLoop=1;jettySize=auto;html=1;entryX=0.5;entryY=0;entryDx=0;entryDy=0;" edge="1" parent="1" source="EOnFB-ccV8KMYcNiq3IO-100" target="EOnFB-ccV8KMYcNiq3IO-92">
          <mxGeometry relative="1" as="geometry">
            <Array as="points">
              <mxPoint x="420" y="310" />
              <mxPoint x="80" y="310" />
            </Array>
          </mxGeometry>
        </mxCell>
        <mxCell id="EOnFB-ccV8KMYcNiq3IO-105" value="200" style="edgeLabel;html=1;align=center;verticalAlign=middle;resizable=0;points=[];" vertex="1" connectable="0" parent="EOnFB-ccV8KMYcNiq3IO-104">
          <mxGeometry x="-0.332" y="1" relative="1" as="geometry">
            <mxPoint x="9" as="offset" />
          </mxGeometry>
        </mxCell>
        <mxCell id="EOnFB-ccV8KMYcNiq3IO-115" value="" style="edgeStyle=orthogonalEdgeStyle;rounded=0;orthogonalLoop=1;jettySize=auto;html=1;" edge="1" parent="1" source="EOnFB-ccV8KMYcNiq3IO-112" target="EOnFB-ccV8KMYcNiq3IO-114">
          <mxGeometry relative="1" as="geometry" />
        </mxCell>
        <mxCell id="EOnFB-ccV8KMYcNiq3IO-116" value="NO" style="edgeLabel;html=1;align=center;verticalAlign=middle;resizable=0;points=[];" vertex="1" connectable="0" parent="EOnFB-ccV8KMYcNiq3IO-115">
          <mxGeometry x="-0.4238" relative="1" as="geometry">
            <mxPoint as="offset" />
          </mxGeometry>
        </mxCell>
        <mxCell id="EOnFB-ccV8KMYcNiq3IO-126" value="" style="edgeStyle=orthogonalEdgeStyle;rounded=0;orthogonalLoop=1;jettySize=auto;html=1;entryX=1;entryY=1;entryDx=0;entryDy=0;" edge="1" parent="1" source="EOnFB-ccV8KMYcNiq3IO-112" target="EOnFB-ccV8KMYcNiq3IO-97">
          <mxGeometry relative="1" as="geometry">
            <mxPoint x="180" y="490" as="targetPoint" />
          </mxGeometry>
        </mxCell>
        <mxCell id="EOnFB-ccV8KMYcNiq3IO-127" value="Yes" style="edgeLabel;html=1;align=center;verticalAlign=middle;resizable=0;points=[];" vertex="1" connectable="0" parent="EOnFB-ccV8KMYcNiq3IO-126">
          <mxGeometry x="-0.1944" y="-4" relative="1" as="geometry">
            <mxPoint x="-4" y="-4" as="offset" />
          </mxGeometry>
        </mxCell>
        <mxCell id="EOnFB-ccV8KMYcNiq3IO-112" value="Any counter?" style="rhombus;whiteSpace=wrap;html=1;" vertex="1" parent="1">
          <mxGeometry x="240" y="450" width="80" height="80" as="geometry" />
        </mxCell>
        <mxCell id="EOnFB-ccV8KMYcNiq3IO-120" value="" style="edgeStyle=orthogonalEdgeStyle;rounded=0;orthogonalLoop=1;jettySize=auto;html=1;" edge="1" parent="1" source="EOnFB-ccV8KMYcNiq3IO-114" target="EOnFB-ccV8KMYcNiq3IO-119">
          <mxGeometry relative="1" as="geometry" />
        </mxCell>
        <mxCell id="EOnFB-ccV8KMYcNiq3IO-128" value="Publish&lt;br&gt;new game&lt;br&gt;state" style="edgeLabel;html=1;align=center;verticalAlign=middle;resizable=0;points=[];" vertex="1" connectable="0" parent="EOnFB-ccV8KMYcNiq3IO-120">
          <mxGeometry x="0.239" y="1" relative="1" as="geometry">
            <mxPoint x="8" y="-1" as="offset" />
          </mxGeometry>
        </mxCell>
        <mxCell id="EOnFB-ccV8KMYcNiq3IO-114" value="Execute action" style="whiteSpace=wrap;html=1;" vertex="1" parent="1">
          <mxGeometry x="80" y="460" width="120" height="60" as="geometry" />
        </mxCell>
        <mxCell id="EOnFB-ccV8KMYcNiq3IO-123" style="edgeStyle=orthogonalEdgeStyle;rounded=0;orthogonalLoop=1;jettySize=auto;html=1;entryX=0;entryY=0.5;entryDx=0;entryDy=0;exitX=0.5;exitY=1;exitDx=0;exitDy=0;" edge="1" parent="1" source="EOnFB-ccV8KMYcNiq3IO-119" target="EOnFB-ccV8KMYcNiq3IO-1">
          <mxGeometry relative="1" as="geometry">
            <Array as="points">
              <mxPoint x="10" y="650" />
              <mxPoint x="10" y="80" />
            </Array>
          </mxGeometry>
        </mxCell>
        <mxCell id="EOnFB-ccV8KMYcNiq3IO-124" value="Yes" style="edgeLabel;html=1;align=center;verticalAlign=middle;resizable=0;points=[];" vertex="1" connectable="0" parent="EOnFB-ccV8KMYcNiq3IO-123">
          <mxGeometry x="-0.8865" y="-2" relative="1" as="geometry">
            <mxPoint x="-11" as="offset" />
          </mxGeometry>
        </mxCell>
        <mxCell id="EOnFB-ccV8KMYcNiq3IO-119" value="Game Over?" style="rhombus;whiteSpace=wrap;html=1;" vertex="1" parent="1">
          <mxGeometry x="100" y="580" width="80" height="80" as="geometry" />
        </mxCell>
        <mxCell id="EOnFB-ccV8KMYcNiq3IO-121" style="edgeStyle=orthogonalEdgeStyle;rounded=0;orthogonalLoop=1;jettySize=auto;html=1;entryX=0;entryY=1;entryDx=0;entryDy=0;" edge="1" parent="1" source="EOnFB-ccV8KMYcNiq3IO-119" target="EOnFB-ccV8KMYcNiq3IO-92">
          <mxGeometry relative="1" as="geometry">
            <Array as="points">
              <mxPoint x="52" y="610" />
              <mxPoint x="52" y="400" />
            </Array>
          </mxGeometry>
        </mxCell>
        <mxCell id="EOnFB-ccV8KMYcNiq3IO-122" value="NO" style="edgeLabel;html=1;align=center;verticalAlign=middle;resizable=0;points=[];" vertex="1" connectable="0" parent="EOnFB-ccV8KMYcNiq3IO-121">
          <mxGeometry x="-0.5997" y="-1" relative="1" as="geometry">
            <mxPoint as="offset" />
          </mxGeometry>
        </mxCell>
      </root>
    </mxGraphModel>
  </diagram>
</mxfile>
